<svg xmlns="http://www.w3.org/2000/svg" viewBox="0 0 415 100" width="83" height="20">
  <!-- BETEL+ logo - dark version (black text for light mode) -->
  <!-- B -->
  <path d="M0 0h18v100H0z" fill="#0d0d0d"/>
  <path d="M18 0h40c20 0 33 10 33 25s-8 22-22 25c16 3 26 13 26 27s-14 23-35 23H18v-18h42c10 0 17-5 17-14s-7-14-17-14H18v-18h38c9 0 15-5 15-13s-6-13-15-13H18V0z" fill="#0d0d0d"/>
  <!-- E -->
  <path d="M105 0h60v18h-42v24h36v18h-36v22h42v18h-60z" fill="#0d0d0d"/>
  <!-- T -->
  <path d="M175 0h65v18h-23v82h-18V18h-24z" fill="#0d0d0d"/>
  <!-- E -->
  <path d="M248 0h60v18h-42v24h36v18h-36v22h42v18h-60z" fill="#0d0d0d"/>
  <!-- L -->
  <path d="M318 0h18v82h42v18h-60z" fill="#0d0d0d"/>
  <!-- + -->
  <path d="M393 0h10v10h12v10h-12v10h-10V20h-12V10h12z" fill="#EAB308"/>
</svg>
